<svg width="773" height="147" viewBox="0 0 773 147" fill="none" xmlns="http://www.w3.org/2000/svg">
<path d="M26.2443 80.8977V120H7.4858V29.8182H25.7159V64.2969H26.5085C28.035 60.3044 30.5009 57.178 33.9062 54.9176C37.3116 52.6278 41.5829 51.483 46.7202 51.483C51.4171 51.483 55.5123 52.5104 59.0057 54.5653C62.5284 56.5909 65.2585 59.5118 67.196 63.3281C69.1629 67.1151 70.1316 71.6506 70.1023 76.9347V120H51.3438V80.2812C51.3731 76.1127 50.3163 72.8688 48.1733 70.5497C46.0597 68.2306 43.0947 67.071 39.2784 67.071C36.7244 67.071 34.464 67.6141 32.4972 68.7003C30.5597 69.7865 29.0331 71.3717 27.9176 73.456C26.8314 75.5109 26.2737 77.9915 26.2443 80.8977ZM128.238 91.2017V52.3636H146.997V120H128.987V107.714H128.282C126.756 111.678 124.217 114.863 120.664 117.27C117.142 119.677 112.841 120.881 107.762 120.881C103.242 120.881 99.2639 119.853 95.8292 117.798C92.3945 115.743 89.7085 112.822 87.771 109.036C85.8628 105.249 84.8941 100.713 84.8647 95.429V52.3636H103.623V92.0824C103.653 96.0748 104.724 99.2306 106.838 101.55C108.951 103.869 111.784 105.028 115.336 105.028C117.597 105.028 119.71 104.515 121.677 103.487C123.644 102.43 125.229 100.875 126.433 98.8196C127.666 96.7647 128.268 94.2254 128.238 91.2017ZM162.001 120V52.3636H179.879V64.2969H180.672C182.081 60.3338 184.429 57.2074 187.717 54.9176C191.005 52.6278 194.939 51.483 199.518 51.483C204.157 51.483 208.105 52.6425 211.364 54.9616C214.622 57.2514 216.795 60.3632 217.881 64.2969H218.585C219.965 60.4219 222.46 57.3248 226.071 55.0057C229.711 52.6572 234.012 51.483 238.973 51.483C245.285 51.483 250.407 53.4938 254.341 57.5156C258.304 61.508 260.286 67.1738 260.286 74.5128V120H241.571V78.2116C241.571 74.4541 240.573 71.6359 238.577 69.7571C236.58 67.8783 234.085 66.9389 231.091 66.9389C227.686 66.9389 225.029 68.0251 223.121 70.1974C221.213 72.3404 220.259 75.1733 220.259 78.696V120H202.072V77.8153C202.072 74.4981 201.118 71.8561 199.21 69.8892C197.331 67.9223 194.851 66.9389 191.768 66.9389C189.684 66.9389 187.805 67.4673 186.132 68.5241C184.488 69.5516 183.182 71.0047 182.213 72.8835C181.244 74.733 180.76 76.9053 180.76 79.4006V120H162.001ZM379.959 80.8977V120H361.201V52.3636H379.078V64.2969H379.871C381.368 60.3632 383.878 57.2514 387.401 54.9616C390.924 52.6425 395.195 51.483 400.215 51.483C404.912 51.483 409.007 52.5104 412.5 54.5653C415.994 56.6203 418.709 59.5559 420.647 63.3722C422.584 67.1591 423.553 71.6799 423.553 76.9347V120H404.794V80.2812C404.824 76.142 403.767 72.9129 401.624 70.5938C399.481 68.2453 396.531 67.071 392.773 67.071C390.248 67.071 388.017 67.6141 386.08 68.7003C384.172 69.7865 382.675 71.3717 381.588 73.456C380.532 75.5109 379.989 77.9915 379.959 80.8977ZM480.478 75.5256V90.4091H439.35V75.5256H480.478ZM515.221 29.8182V120H496.462V29.8182H515.221ZM646.817 146.773C640.74 146.773 635.529 145.936 631.185 144.263C626.869 142.619 623.435 140.373 620.881 137.526C618.327 134.678 616.668 131.478 615.905 127.926L633.254 125.592C633.783 126.943 634.619 128.205 635.764 129.379C636.909 130.554 638.421 131.493 640.3 132.197C642.208 132.931 644.527 133.298 647.257 133.298C651.338 133.298 654.699 132.3 657.341 130.304C660.012 128.337 661.348 125.035 661.348 120.396V108.023H660.555C659.733 109.902 658.5 111.678 656.857 113.351C655.213 115.024 653.099 116.389 650.516 117.446C647.932 118.503 644.85 119.031 641.268 119.031C636.19 119.031 631.566 117.857 627.398 115.509C623.259 113.131 619.956 109.505 617.49 104.632C615.054 99.7296 613.835 93.5355 613.835 86.0497C613.835 78.3878 615.083 71.9882 617.578 66.8508C620.073 61.7135 623.391 57.8679 627.53 55.3139C631.698 52.7599 636.263 51.483 641.224 51.483C645.011 51.483 648.182 52.1288 650.736 53.4205C653.29 54.6828 655.345 56.268 656.901 58.1761C658.486 60.0549 659.704 61.9044 660.555 63.7244H661.26V52.3636H679.886V120.661C679.886 126.414 678.477 131.229 675.659 135.104C672.841 138.979 668.937 141.885 663.946 143.822C658.985 145.789 653.275 146.773 646.817 146.773ZM647.213 104.94C650.237 104.94 652.791 104.192 654.875 102.695C656.989 101.168 658.603 98.9957 659.719 96.1776C660.864 93.33 661.436 89.9247 661.436 85.9616C661.436 81.9986 660.878 78.5639 659.763 75.6577C658.647 72.7221 657.033 70.447 654.919 68.8324C652.805 67.2178 650.237 66.4105 647.213 66.4105C644.131 66.4105 641.533 67.2472 639.419 68.9205C637.305 70.5644 635.705 72.8542 634.619 75.7898C633.533 78.7254 632.99 82.116 632.99 85.9616C632.99 89.866 633.533 93.242 634.619 96.0895C635.735 98.9077 637.335 101.095 639.419 102.651C641.533 104.177 644.131 104.94 647.213 104.94ZM751.089 71.6506L733.916 72.7074C733.623 71.2396 732.991 69.9186 732.023 68.7443C731.054 67.5407 729.777 66.5866 728.192 65.8821C726.636 65.1482 724.772 64.7812 722.599 64.7812C719.693 64.7812 717.242 65.3977 715.246 66.6307C713.25 67.8343 712.251 69.4489 712.251 71.4744C712.251 73.089 712.897 74.4541 714.189 75.5696C715.481 76.6851 717.697 77.5805 720.838 78.2557L733.08 80.7216C739.655 82.072 744.558 84.2443 747.787 87.2386C751.016 90.233 752.631 94.1667 752.631 99.0398C752.631 103.473 751.324 107.362 748.712 110.709C746.128 114.055 742.576 116.668 738.055 118.547C733.564 120.396 728.383 121.321 722.511 121.321C713.558 121.321 706.424 119.457 701.111 115.729C695.827 111.971 692.73 106.863 691.82 100.405L710.27 99.4361C710.828 102.166 712.178 104.25 714.321 105.689C716.464 107.098 719.209 107.803 722.555 107.803C725.843 107.803 728.485 107.171 730.482 105.909C732.507 104.617 733.535 102.959 733.564 100.933C733.535 99.2306 732.815 97.8362 731.406 96.75C729.997 95.6345 727.825 94.7831 724.889 94.196L713.176 91.8622C706.571 90.5412 701.654 88.2514 698.425 84.9929C695.225 81.7344 693.625 77.5805 693.625 72.5312C693.625 68.1866 694.799 64.4437 697.148 61.3026C699.526 58.1615 702.857 55.7396 707.143 54.0369C711.459 52.3343 716.508 51.483 722.291 51.483C730.834 51.483 737.556 53.2884 742.459 56.8991C747.391 60.5099 750.268 65.4271 751.089 71.6506Z" fill="black"/>
<path d="M311.5 75.875V90.4062M275.451 103.488C272.095 109.301 276.292 116.562 282.999 116.562H340.001C346.704 116.562 350.901 109.301 347.549 103.488L319.052 54.0898C315.697 48.2773 307.303 48.2773 303.948 54.0898L275.451 103.488ZM311.5 102.031H311.527V102.062H311.5V102.031Z" stroke="#EF4444" stroke-width="10" stroke-linecap="round" stroke-linejoin="round"/>
<path d="M564.5 74.625V89.4687M600.125 86.5C600.125 91.1783 599.204 95.8109 597.413 100.133C595.623 104.455 592.999 108.383 589.691 111.691C586.383 114.999 582.455 117.623 578.133 119.413C573.811 121.204 569.178 122.125 564.5 122.125C559.822 122.125 555.189 121.204 550.867 119.413C546.545 117.623 542.617 114.999 539.309 111.691C536.001 108.383 533.377 104.455 531.587 100.133C529.796 95.8109 528.875 91.1783 528.875 86.5C528.875 77.0517 532.628 67.9903 539.309 61.3093C545.99 54.6283 555.052 50.875 564.5 50.875C573.948 50.875 583.01 54.6283 589.691 61.3093C596.372 67.9903 600.125 77.0517 600.125 86.5ZM564.5 101.344H564.532V101.375H564.5V101.344Z" stroke="#EF4444" stroke-width="10" stroke-linecap="round" stroke-linejoin="round"/>
</svg>
